# xmcd
#
# Track frame offsets:
#	150
#	20983
#	36320
#	56221
#	74671
#	89708
#	108090
#	123259
#	139406
#	155156
#	170565
#
# Disc length: 2504 seconds
#
# Revision: 1
# Processed by: cddbd v1.5.2PL0 Copyright (c) Steve Scherf et al.
# Submitted via: audiograbber 1.83.01
#
DISCID=ad09c60b
DTITLE=Dry County - Waitin On Hank
DYEAR=2005
DGENRE=Country Rock
TTITLE0=Waitin On Hank
TTITLE1=Drinkin Till She´s Pretty
TTITLE2=How The Other Half Lives
TTITLE3=How About You
TTITLE4=Every Little Bit
TTITLE5=The Fool In Me
TTITLE6=Straight Up On The Rox
TTITLE7=Breathe Your Love Into Me
TTITLE8=All My Life
TTITLE9=Champagne Her, Beer Me
TTITLE10=God Loves All His Rednecks
EXTD=
EXTT0=
EXTT1=
EXTT2=
EXTT3=
EXTT4=
EXTT5=
EXTT6=
EXTT7=
EXTT8=
EXTT9=
EXTT10=
PLAYORDER=
